<svg width="144" height="40" viewBox="0 0 144 40" fill="none" xmlns="http://www.w3.org/2000/svg">
<g filter="url(#filter0_d_158_1743)">
<path d="M7.58919 0.0282722C8.36333 -0.0493744 9.58952 0.0406083 9.98711 0.204314C10.7978 0.538107 10.9061 0.643179 12.8548 2.9866C14.8438 5.3785 16.1127 6.90185 16.7267 7.63452C16.9854 7.94323 18.0107 9.17173 19.0059 10.3647C20.0012 11.558 21.0411 12.805 21.3173 13.1356C21.5935 13.466 23.9575 16.2969 26.5694 19.4272C29.1744 22.5492 31.3471 25.105 31.4079 25.1189C31.4574 25.1189 31.5455 25.0724 31.6027 25.0147C31.6961 24.9199 31.7059 24.0014 31.7059 15.9304C31.7059 9.87905 31.6842 6.91922 31.6381 6.82202C31.6005 6.75108 31.5122 6.69301 31.4423 6.69285C31.3319 6.69285 29.7931 8.00403 25.9256 11.396C24.5221 12.6269 24.5117 12.6345 24.2131 12.6345C24.0023 12.6345 23.9062 12.5887 23.7194 12.4001C23.5216 12.2005 23.4917 12.1303 23.5131 11.9168C23.5333 11.7169 24.2408 10.6214 27.0413 6.45848C28.9887 3.56358 30.6801 1.11688 30.8496 0.949105C31.2006 0.601699 31.8346 0.240526 32.3256 0.108481C32.7906 -0.0164351 33.7173 -0.00815413 34.159 0.124106C35.3709 0.48703 36.3134 1.50762 36.5715 2.7366C36.7117 3.41269 36.7137 28.5971 36.5736 29.2668C36.2953 30.5912 35.1813 31.6826 33.8611 31.9241C32.921 32.0961 31.7095 31.9679 31.0361 31.6251C30.3433 31.2726 30.4601 31.401 26.7298 26.922C25.0642 24.9221 21.2807 20.3874 19.9621 18.8106C19.5937 18.37 18.5039 17.063 17.5402 15.9064C16.5766 14.7498 14.972 12.8269 13.9746 11.6335C12.9774 10.4403 11.687 8.89281 11.1069 8.19494C10.527 7.49725 9.99435 6.91633 9.92461 6.90431C9.59057 6.84639 9.6069 6.37628 9.6069 16.0679C9.6069 22.9964 9.62516 25.1106 9.68607 25.1731C9.82243 25.3107 9.96198 25.2624 10.3027 24.9616C11.9475 23.5099 16.5611 19.5373 16.7194 19.4366C16.973 19.2762 17.1951 19.2782 17.4611 19.4418C17.7156 19.5988 17.8581 19.9874 17.7559 20.246C17.7183 20.3397 16.9946 21.4428 16.1465 22.6991C15.2975 23.9566 13.8017 26.1799 12.8225 27.6397C10.623 30.9189 10.608 30.9389 10.0423 31.3397C9.42334 31.7784 8.83403 31.9607 8.05169 31.9574C6.54528 31.9509 5.28137 31.0119 4.82461 29.5595L4.67773 29.0918V2.78661L4.83086 2.36056C5.15691 1.44967 5.75288 0.769414 6.59961 0.342856C6.99569 0.143292 7.24899 0.0624064 7.58919 0.0282722Z" fill="#6200EE"/>
<path fill-rule="evenodd" clip-rule="evenodd" d="M76.0079 11.0106C77.462 11.0106 78.7271 11.3387 79.8027 11.996C80.8784 12.6334 81.7145 13.5302 82.3121 14.6856C82.9097 15.821 83.209 17.1456 83.209 18.6595V19.9439H72.4225C72.4624 20.9598 72.8408 21.7867 73.5579 22.4241C74.275 23.0615 75.1514 23.3803 76.1871 23.3804C77.2428 23.3804 78.0204 23.151 78.5183 22.6929C79.0162 22.2348 79.3949 21.7265 79.6538 21.1689L82.7308 22.7824C82.452 23.3003 82.0436 23.8681 81.5058 24.4856C80.9879 25.0831 80.2906 25.6015 79.4142 26.0397C78.5377 26.458 77.4218 26.6668 76.0673 26.6668C74.5935 26.6667 73.289 26.3581 72.1538 25.7408C71.0383 25.1034 70.162 24.2167 69.5246 23.0814C68.9071 21.9261 68.5975 20.5716 68.5975 19.0179V18.6595C68.5975 17.1058 68.9071 15.7606 69.5246 14.6251C70.142 13.4702 71.0084 12.5842 72.1236 11.9668C73.239 11.3294 74.5339 11.0106 76.0079 11.0106ZM75.9777 14.297C74.962 14.2971 74.1554 14.5563 73.5579 15.0741C72.9604 15.592 72.5921 16.2791 72.4527 17.1356H79.384C79.3043 16.279 78.9556 15.592 78.3381 15.0741C77.7406 14.5562 76.9537 14.297 75.9777 14.297Z" fill="#6200EE"/>
<path d="M114.892 11.0106C116.546 11.0106 117.921 11.3787 119.016 12.1158C120.112 12.8527 120.829 13.8187 121.167 15.0137L117.671 16.0897C117.512 15.3328 117.183 14.7949 116.685 14.4762C116.207 14.1576 115.609 13.9981 114.892 13.9981C114.175 13.9981 113.628 14.1278 113.25 14.3866C112.871 14.6256 112.682 14.9641 112.682 15.4022C112.682 15.8802 112.881 16.2392 113.279 16.4783C113.677 16.6973 114.215 16.866 114.892 16.9856L115.729 17.1356C116.844 17.3348 117.851 17.6032 118.748 17.9418C119.664 18.2605 120.381 18.7296 120.899 19.347C121.436 19.9446 121.705 20.7614 121.705 21.797C121.705 23.3506 121.137 24.5551 120.002 25.4116C118.886 26.2482 117.383 26.6668 115.49 26.6668C113.558 26.6668 111.974 26.2482 110.739 25.4116C109.504 24.575 108.757 23.3798 108.499 21.8262L111.964 20.9304C112.104 21.6273 112.333 22.1747 112.652 22.5731C112.99 22.9714 113.399 23.2604 113.877 23.4397C114.375 23.5991 114.913 23.6793 115.49 23.6793C116.367 23.6793 117.014 23.5291 117.432 23.2304C117.85 22.9117 118.06 22.5238 118.06 22.0658C118.06 21.6076 117.86 21.259 117.462 21.0199C117.064 20.761 116.426 20.5512 115.55 20.3918L114.713 20.2429C113.677 20.0437 112.731 19.7752 111.875 19.4366C111.018 19.0781 110.331 18.5895 109.813 17.972C109.295 17.3545 109.036 16.5574 109.036 15.5814C109.036 14.1076 109.574 12.9822 110.65 12.2054C111.725 11.4086 113.14 11.0106 114.892 11.0106Z" fill="#6200EE"/>
<path d="M61.1308 23.5595H61.6684V5.33348H65.5527V26.2491H58.0527L53.8996 8.02306H53.3621V26.2491H49.4777V5.33348H56.9777L61.1308 23.5595Z" fill="#6200EE"/>
<path d="M90.3558 23.7095H90.8944L92.8058 11.4293H98.8423L100.754 23.7095H101.292L102.607 11.4293H106.341L104.25 26.2491H98.0048L96.0933 13.9689H95.5548L93.6433 26.2491H87.3986L85.3069 11.4293H89.0413L90.3558 23.7095Z" fill="#6200EE"/>
<path d="M130.985 16.3595H131.523L134.9 11.4293H139.262L133.943 18.7793L139.321 26.2491H134.9L131.523 21.2595H130.985L127.609 26.2491H123.186L128.565 18.7793L123.246 11.4293H127.609L130.985 16.3595Z" fill="#6200EE"/>
</g>
<defs>
<filter id="filter0_d_158_1743" x="0.677734" y="0" width="142.644" height="40" filterUnits="userSpaceOnUse" color-interpolation-filters="sRGB">
<feFlood flood-opacity="0" result="BackgroundImageFix"/>
<feColorMatrix in="SourceAlpha" type="matrix" values="0 0 0 0 0 0 0 0 0 0 0 0 0 0 0 0 0 0 127 0" result="hardAlpha"/>
<feOffset dy="4"/>
<feGaussianBlur stdDeviation="2"/>
<feComposite in2="hardAlpha" operator="out"/>
<feColorMatrix type="matrix" values="0 0 0 0 0 0 0 0 0 0 0 0 0 0 0 0 0 0 0.25 0"/>
<feBlend mode="normal" in2="BackgroundImageFix" result="effect1_dropShadow_158_1743"/>
<feBlend mode="normal" in="SourceGraphic" in2="effect1_dropShadow_158_1743" result="shape"/>
</filter>
</defs>
</svg>
